<svg width="84" height="104" viewBox="0 0 84 104" fill="none" xmlns="http://www.w3.org/2000/svg">
<path d="M54.2057 29.8195C58.2844 31.3057 61.8463 32.8475 65.1007 35.0171C69.6492 38.0495 73.5058 41.7822 76.5766 46.3094C77.0549 47.0141 77.4905 47.7529 77.8536 48.5217C79.0708 51.1141 78.3404 52.263 75.5558 51.9341C68.7566 51.1355 62.4485 49.3545 58.216 43.2813C56.8066 41.2612 54.684 40.0055 52.2795 39.335C46.407 37.6864 40.5858 37.7761 34.9781 40.2874C29.8402 42.5894 28.764 46.6468 31.7621 51.4259C32.9238 53.2752 34.5126 54.6632 36.2679 55.9018C38.3906 57.4009 40.1544 59.2373 41.3247 61.5778C42.7639 64.4649 42.3881 66.5363 40.0263 69.0945C37.468 71.8663 34.9311 72.6394 32.0611 71.5161C29.443 70.4911 27.6108 68.6931 24.4931 64.0293C21.4907 67.9542 20.9739 72.3362 21.6914 76.9444C22.4089 81.5442 24.3094 85.7809 25.9537 90.0945C26.9659 92.7467 27.9909 95.3989 28.5547 98.2006C28.7853 99.3324 28.8451 100.464 28.6914 101.592C28.4992 103.005 27.598 103.753 26.1972 103.667C25.2917 103.612 24.3393 103.441 23.5108 103.087C17.0148 100.319 11.2448 96.4923 6.67494 91.0426C2.48947 86.0542 0.670071 80.0622 0.196002 73.7455C-0.811928 60.2282 2.02394 47.565 9.71581 36.2514C13.9013 30.0971 19.3979 25.6852 27.1069 24.7328C27.6322 24.6688 28.3369 24.7243 27.9013 23.7591C26.5944 20.8549 27.1581 17.8994 27.7988 14.9696C28.875 10.0623 30.8567 5.53519 33.5815 1.31128C34.5895 -0.247592 35.5675 -0.401344 37.0025 0.768879C38.5614 2.03733 39.2234 4.64685 40.9659 4.98425C42.5974 5.30029 44.5876 4.06173 46.5309 4.08309C48.8286 4.10871 51.0794 4.45466 53.1764 5.39852C54.1843 5.85124 54.6883 5.6505 55.2264 4.75789C56.1105 3.30152 57.1867 1.31555 58.8823 1.6316C60.5693 1.94764 60.8255 4.2283 61.2697 5.86405C62.4357 10.1563 62.9909 14.5425 62.3502 18.9543C61.6498 23.8146 59.1642 27.5644 54.1886 29.8152L54.2057 29.8195ZM58.2331 14.0214C58.058 12.6633 57.2978 11.6853 55.7816 11.7451C54.4107 11.7963 53.5479 12.6761 53.5309 14.0898C53.5095 15.6487 54.4833 16.4815 55.9439 16.4516C57.3106 16.4217 58.1306 15.5632 58.2288 14.0214H58.2331ZM46.3173 13.6413C46.1251 12.1764 45.2966 11.2411 43.8018 11.3308C42.4564 11.4119 41.5681 12.296 41.5895 13.7225C41.6108 15.2814 42.6102 16.0886 44.0708 16.0373C45.4546 15.9861 46.2191 15.0764 46.3216 13.6413H46.3173ZM51.1093 20.1801C52.1684 20.1075 53.2148 19.7871 53.2148 18.5956C53.2148 17.3912 52.1172 17.0153 51.1007 17.0367C50.1782 17.0538 49.1532 17.3826 49.1148 18.5059C49.072 19.7316 50.0629 20.0733 51.1135 20.1843L51.1093 20.1801Z" fill="#16A99F"/>
<path d="M80.9422 54.5564C82.4754 58.0628 83.3253 61.4966 83.6371 65.02C84.2991 72.5197 84.3162 80.0536 80.5962 86.8699C76.4193 94.5276 69.5304 99.1914 61.5438 102.1C55.9874 104.124 52.2034 101.677 51.2296 95.7832C49.9782 88.2024 51.9898 81.574 57.5548 76.1372C59.3272 74.4032 61.4242 73.5789 63.9227 73.7156C66.4297 73.8565 68.8855 73.5661 71.2473 72.635C74.0532 71.5289 76.0307 69.7009 76.8635 66.6985C77.7903 63.3501 78.8366 60.0359 79.8317 56.7046C80.0325 56.0426 80.135 55.3294 80.9379 54.5564H80.9422Z" fill="#16A99F"/>
<path d="M53.365 47.8512C54.8 47.8853 56.03 49.2648 55.9745 50.9177C55.9147 52.5876 55.0562 53.5443 53.3009 53.5485C51.5327 53.5485 50.3454 52.3313 50.4266 50.5931C50.5035 49.0171 51.789 47.817 53.365 47.8512Z" fill="#16A99F"/>
</svg>
