<svg width="217" height="110" viewBox="0 0 217 110" fill="none" xmlns="http://www.w3.org/2000/svg">
<path opacity="0.54" d="M216.926 88.7175C216.926 79.6297 168.41 72.2568 108.57 72.2568C48.7301 72.2568 0.214817 79.6297 0.214817 88.7175C0.214817 97.8054 48.7301 109.801 108.57 109.801C168.41 109.801 216.926 97.8054 216.926 88.7175Z" fill="#16A99F"/>
<path d="M110.267 13.8052V87.1047L93.8711 88.5774C93.8711 88.5774 79.5262 88.7452 75.5369 84.9143C71.8458 81.3723 66.2347 85.8464 63.3079 85.1007L62.2733 77.2152L53.0456 6.91705C53.232 6.84249 59.1601 6.23663 67.26 6.06885C81.176 5.75194 101.524 6.70267 110.267 13.8052Z" fill="#FDF4E4"/>
<path d="M88.437 70.6074C83.5156 71.0921 77.0562 72.4157 71.7993 75.8458" stroke="#2B2594" stroke-width="1.25" stroke-linecap="round" stroke-linejoin="round"/>
<path d="M92.5196 7.4209C92.5196 7.4209 103.267 17.7018 103.369 30.4528C103.369 30.4528 107.042 16.9468 104.478 9.33168L92.5196 7.4209Z" fill="#4E5682"/>
<path d="M74.9497 74.0935C72.1441 75.5196 68.5276 77.2253 63.3918 77.2253C63.0189 77.2253 62.6461 77.2253 62.2733 77.2253L53.0456 6.9178C53.232 6.84323 57.6967 6.18145 65.7966 6.01367C67.6235 8.22272 67.8751 10.2267 69.3199 12.7434C74.3625 21.5423 79.4983 34.6941 80.5422 47.0536C81.1388 53.979 83.935 69.5169 74.9404 74.0841L74.9497 74.0935Z" fill="#4E5682"/>
<path d="M75.6488 92.3156C75.4251 92.4461 75.1828 92.558 74.9498 92.6512C74.4371 92.8656 73.8965 93.024 73.3372 93.1172C68.9378 93.8629 62.7021 92.2317 56.0656 88.028C48.1708 83.0413 22.3892 83.3955 22.3892 83.3955C18.1482 83.7963 1.08169 78.558 10.9898 58.0241C11.5211 56.9149 12.1269 55.7684 12.826 54.5753C26.4345 31.1706 63.4291 69.6752 66.272 72.2571C68.0243 73.8509 70.9324 74.3449 72.256 76.06C77.6528 83.0413 79.2653 90.3116 75.6488 92.3156Z" fill="#FDF4E4"/>
<path d="M74.9498 92.6508C74.4371 92.8652 73.8965 93.0236 73.3373 93.1168C73.1508 92.6042 73.0017 92.0542 72.8339 91.6348C72.1908 90.0409 71.1375 88.5123 70.0936 87.1515C69.1149 85.8745 67.9778 84.7001 66.7567 83.6468C66.3839 83.3206 65.8619 83.0316 65.5264 82.6681C64.8832 82.2487 65.545 81.2793 66.1788 81.6987C68.7234 83.3299 70.8766 85.7347 72.5823 88.1954C73.4864 89.5003 74.1761 90.9171 74.81 92.3618C74.8566 92.455 74.9032 92.5483 74.9498 92.6508Z" fill="#2B2594"/>
<path d="M106.659 29.055C99.3611 33.613 94.1507 42.4678 94.4304 51.1362C94.6074 56.5517 96.3877 61.529 98.951 66.2454C99.0349 66.4039 99.2586 66.6742 99.2865 66.8606C99.3238 67.1589 99.0256 67.5503 98.7832 67.1402C98.2706 66.264 97.7393 65.4065 97.2732 64.5024C96.0708 62.1722 95.0735 59.786 94.3558 57.2601C92.6314 51.1828 93.1254 44.7514 95.8471 39.0564C97.4037 35.8034 99.6034 32.8673 102.185 30.3693C103.211 29.372 104.301 28.4212 105.476 27.6103C106.566 26.8553 107.815 28.356 106.65 29.0644L106.659 29.055Z" fill="#2B2594"/>
<path d="M113.091 71.7257C108.393 71.1106 103.667 70.8123 98.951 71.4182C93.8432 72.0706 87.6448 73.7391 84.5875 78.2783C83.1521 80.4035 82.9191 82.9854 84.1494 85.2597C85.212 87.2264 87.2626 88.3635 89.3598 88.9321C94.244 90.2743 99.734 89.4168 104.581 88.2424C104.982 88.1492 105.895 88.0839 106.147 87.6552C106.669 86.751 105.448 86.8069 104.972 86.9095C102.801 87.3662 100.591 87.6738 98.3824 87.8416C95.7446 88.0466 93.0043 88.0932 90.4131 87.4874C89.192 87.2077 87.9617 86.751 86.9644 85.9774C86.5449 85.6512 86.1721 85.2597 85.8738 84.8123C86.2653 84.4301 86.722 84.0759 87.1881 83.7963C89.3412 82.5846 91.5316 81.988 93.9643 81.6245C95.1108 81.4568 96.2666 81.4754 97.4224 81.4381C97.5622 81.4381 97.8139 81.4754 97.9537 81.4195C98.4663 81.4008 98.4756 80.6179 97.9537 80.5899C97.3199 80.3383 96.2107 80.506 95.5396 80.4687C94.3558 80.4128 93.1441 80.4687 91.9697 80.6179C89.6115 80.8975 87.0482 81.6432 85.1188 83.0693C84.4197 80.0493 87.0762 77.5047 89.4064 76.0879C92.24 74.3729 95.5303 73.4688 98.7739 72.9654C101.887 72.4807 105.066 72.3782 108.216 72.5087C109.446 72.5553 110.667 72.6485 111.888 72.779C112.205 72.8163 112.643 72.9468 112.96 72.8909C113.697 72.9654 113.827 71.8283 113.091 71.7257Z" fill="#2B2594"/>
<path d="M73.2159 71.5672C68.9656 74.177 58.9363 74.2143 47.0894 71.2037C36.4636 68.5099 29.1374 62.4513 18.0828 55.0319C1.54757 43.9307 5.14543 21.1598 19.1547 8.66046C39.1014 -9.14244 62.1427 4.32625 68.9376 15.0266C74.4835 23.7696 77.14 36.0546 78.0534 46.7829C79.0787 58.695 77.4756 68.9666 73.2252 71.5672H73.2159Z" fill="#FDF4E4"/>
<path d="M7.9231 39.0377C14.4477 38.0869 49.8019 74.774 19.9377 84.2254C-9.93572 93.6861 0.66213 40.0909 7.9231 39.0377Z" fill="#222A57"/>
<path d="M54.8538 4.00033C52.0855 8.8938 77.7366 42.0016 93.3211 25.0842C108.915 8.15745 60.8098 -6.52296 54.8538 4.00033Z" fill="#222A57"/>
<path d="M208.266 87.3102C208.266 87.3102 201.257 83.7869 195.031 88.9041C193.763 89.9387 192.001 90.7682 189.951 91.4114C182.625 93.695 171.44 93.6577 164.654 92.474C163.946 92.3435 163.284 92.2036 162.678 92.0638C155.864 90.3954 146.348 95.2702 132.553 97.936C130.195 98.402 127.697 98.8028 125.077 99.0825C118.208 99.8281 112.289 99.0638 107.293 98.0012C99.24 96.2955 93.5729 93.8441 90.208 95.7549C90.3385 95.4753 92.4637 90.9267 95.2786 85.9866C96.8818 83.1624 98.718 80.1983 100.526 77.8402C101.486 76.5818 101.84 75.1185 101.803 73.5059C101.766 72.1451 101.468 70.6817 101.03 69.1251C100.675 67.8668 100.228 66.5526 99.7713 65.201C99.3611 63.98 98.9324 62.731 98.5595 61.4447C97.208 56.98 96.3412 52.1797 98.1867 47.454C98.3918 46.9321 98.5968 46.4008 98.8019 45.8602C101.887 37.751 104.609 28.7097 104.059 20.526C103.798 16.4434 102.717 12.5846 100.461 9.14519L94.0762 7.69113C94.0762 7.69113 103.248 -0.94934 116.316 3.72043C116.828 3.89752 117.341 4.10258 117.863 4.32629C118.441 4.57795 119.028 4.84826 119.615 5.15584C128.265 9.60191 132.991 12.6405 138.35 14.6818C138.602 14.7843 138.854 14.8775 139.115 14.9707H139.124C140.224 15.3622 141.361 15.7164 142.573 16.0333C145.304 16.7417 148.417 17.2637 152.35 17.6272C162.119 18.5406 169.109 23.2104 175.41 29.6325C176.622 30.8722 177.815 32.1771 178.99 33.538C179.027 33.5846 179.064 33.6218 179.101 33.6684C180.322 35.0666 181.525 36.5206 182.727 38.0213C183.314 38.7483 183.911 39.4847 184.498 40.2304C184.983 40.8362 185.477 41.47 185.971 42.1318C186.642 43.0173 187.322 43.9494 188.012 44.9281C188.385 45.4501 188.758 45.9907 189.131 46.5406C189.709 47.3888 190.296 48.265 190.883 49.1691C191.498 50.1012 192.104 51.0519 192.71 52.0306C193.595 53.4381 194.472 54.8921 195.32 56.3648C195.888 57.3249 196.448 58.3036 197.007 59.2916C197.808 60.7363 198.601 62.1997 199.365 63.6724V63.691C199.365 63.691 199.374 63.7004 199.374 63.7097C201.844 68.4727 204.025 73.3009 205.647 77.7749C206.906 81.2143 207.819 84.4487 208.266 87.3102Z" fill="#CDCAF7"/>
<g opacity="0.1">
<path d="M178.99 33.5378C171.85 34.9267 164.99 40.3421 157.589 36.7256C151.633 33.8641 149.247 30.2942 142.563 29.3341C136.607 28.3834 131.593 24.3288 128.014 19.5565C124.518 14.1877 123.073 8.59514 117.863 4.32617C118.441 4.57784 119.028 4.84814 119.615 5.15573C128.675 9.81618 133.429 12.9294 139.115 14.9706H139.124C142.722 16.2476 146.683 17.1051 152.35 17.6271C164.011 18.7176 171.71 25.149 178.99 33.5378Z" fill="#A8C3E5"/>
</g>
<g opacity="0.1">
<path d="M208.266 87.3097C208.266 87.3097 201.257 83.7864 195.031 88.9036C193.763 89.9382 192.002 90.7677 189.951 91.4109C182.625 93.6945 171.44 93.6572 164.654 92.4735C163.946 92.343 163.284 92.2031 162.678 92.0633C155.864 90.3949 146.348 95.2697 132.553 97.9355C130.195 98.4015 127.697 98.8023 125.078 99.082C118.208 99.8276 112.289 99.0633 107.293 98.0007C99.2307 96.295 93.5636 93.8436 90.1987 95.7637C90.1987 95.7637 92.3705 91.0846 95.2786 85.9861C100.964 85.3616 106.827 87.6546 112.811 89.9382C126.392 95.2045 134.986 87.1699 147.466 84.6719C153.283 83.5627 158.828 82.7331 164.924 83.2831C171.03 83.8423 176.575 85.2311 182.951 84.3922C190.156 83.5627 195.982 81.9036 202.907 78.576C203.811 78.1566 204.725 77.8956 205.647 77.7744C206.906 81.2138 207.819 84.4482 208.266 87.3097Z" fill="#2B2594"/>
</g>
<path opacity="0.2" d="M156.839 47.8437L132.49 56.3467L141.909 83.3179L166.258 74.8149L156.839 47.8437Z" fill="#16A99F"/>
<path opacity="0.2" d="M122.719 25.9977L115.458 50.7447L98.8019 45.8605C101.887 37.7514 104.609 28.7101 104.059 20.5264L122.719 25.9977Z" fill="#16A99F"/>
<path opacity="0.2" d="M130.651 71.9117C130.651 71.9117 120.165 76.8238 114.181 73.2259C110.071 70.7559 104.739 72.3032 101.803 73.5055C101.766 72.1447 101.468 70.6813 101.03 69.1247C105.075 67.214 111.329 66.4869 115.141 69.5162C119.429 72.909 128.88 68.1088 128.88 68.1088L130.651 71.9117Z" fill="#16A99F"/>
<path opacity="0.2" d="M128.163 63.7473C128.163 63.7473 120.24 69.0695 113.016 64.409C108.281 61.3518 102.912 63.421 99.7712 65.2013C99.361 63.9803 98.9323 62.7313 98.5594 61.445C103.537 58.7326 110.938 56.2439 115.141 60.0562C120.445 64.8751 126.764 60.0562 126.764 60.0562L128.163 63.7473Z" fill="#16A99F"/>
<path opacity="0.2" d="M142.573 16.0332C140.82 17.5152 138.919 19.8175 138.91 22.8001C138.891 28.3274 126.578 34.3487 126.578 34.3487L124.276 29.8561C124.276 29.8561 131.462 29.1011 134.538 21.141C135.619 18.3354 137.008 16.2289 138.35 14.6816C138.602 14.7842 138.854 14.8774 139.115 14.9706H139.124C140.224 15.3621 141.361 15.7163 142.573 16.0332Z" fill="#16A99F"/>
<path opacity="0.2" d="M185.971 42.132L163.638 50.2225L161.941 45.5528L182.727 38.0215C183.314 38.7485 183.911 39.4849 184.498 40.2305C184.983 40.8364 185.477 41.4702 185.971 42.132Z" fill="#16A99F"/>
<path opacity="0.2" d="M190.883 49.1687L166.677 57.9304L164.989 53.2606L188.012 44.9277C188.385 45.4497 188.758 45.9903 189.131 46.5402C189.708 47.3884 190.296 48.2646 190.883 49.1687Z" fill="#16A99F"/>
<path opacity="0.2" d="M195.32 56.3645L169.715 65.6388L168.028 60.969L192.71 52.0303C193.595 53.4377 194.472 54.8918 195.32 56.3645Z" fill="#16A99F"/>
<path opacity="0.2" d="M199.374 63.7101L172.763 73.3479L171.067 68.6781L197.007 59.292C197.808 60.7367 198.601 62.2001 199.365 63.6728V63.6915C199.365 63.6915 199.374 63.7008 199.374 63.7101Z" fill="#16A99F"/>
<path opacity="0.2" d="M179.101 33.6688L131.276 51.4251L129.561 47.0629L175.41 29.6328C176.622 30.8725 177.815 32.1774 178.989 33.5383C179.027 33.5849 179.064 33.6222 179.101 33.6688Z" fill="#16A99F"/>
<path opacity="0.3" d="M73.216 71.5677C68.9657 74.1776 58.9364 74.2148 47.0895 71.2042C43.9297 61.4639 48.1241 53.6716 48.702 49.589C49.2893 45.4879 45.4304 40.0351 47.7699 37.9939C50.6967 35.4306 56.485 42.9992 63.8019 43.2974C70.8578 43.5771 75.453 44.1363 78.0442 46.7928C79.0695 58.7049 77.4663 68.9765 73.216 71.577V71.5677Z" fill="#2B2594"/>
<path d="M71.8737 75.5848C58.5542 65.4996 40.4716 70.0668 40.4716 70.0668L42.7646 78.2785L70.6713 80.9443L72.2559 76.0601" fill="#FDF4E4"/>
<path d="M77.5875 88.2425C77.3172 88.2425 77.0748 88.0467 77.0189 87.7764C75.6394 80.9628 72.2839 75.9762 67.0642 72.9655C54.4996 65.7139 35.0283 72.0987 34.8325 72.1639C34.5249 72.2664 34.1987 72.0987 34.0962 71.7911C33.9937 71.4835 34.1614 71.1573 34.469 71.0547C35.2893 70.7844 54.6301 64.4369 67.6514 71.9495C73.1787 75.1373 76.7113 80.3849 78.1654 87.5434C78.2306 87.8603 78.0256 88.1679 77.7086 88.2331C77.6714 88.2331 77.6341 88.2425 77.5875 88.2425Z" fill="#2B2594"/>
<path d="M58.8431 62.4147C60.903 65.8168 67.0268 67.5318 68.9283 66.2176C70.8297 64.9033 71.2678 59.637 69.8044 56.1324C68.3411 52.6277 56.3637 58.3228 58.8431 62.4147Z" fill="#222A57"/>
<path d="M31.1787 52.7114C31.5422 53.0283 32.4184 53.1682 32.8751 53.308C33.7233 53.5596 34.5808 53.7367 35.457 53.8393C36.5569 53.8672 37.7499 53.7554 38.5981 52.9631C38.5702 52.9911 38.5422 53.019 38.5049 53.047C39.4091 52.0963 39.959 51.1735 40.0149 49.822C40.0522 48.9365 39.931 48.0696 39.7539 47.2028C39.6794 46.8206 39.4743 46.2987 39.6514 45.9258C40.3878 44.332 41.8791 47.1842 42.1214 47.7341C42.8578 49.4025 43.0349 51.4158 42.2706 53.1122C41.1055 55.6662 38.6634 56.8033 35.9417 56.7287C34.1614 56.4771 32.5209 55.806 31.0855 54.7154C30.7313 54.4544 30.1907 54.0909 29.967 53.6901C29.5569 52.9445 30.5262 52.1615 31.1694 52.7114C30.8525 52.4411 31.1787 52.7208 31.1694 52.7114H31.1787Z" fill="#222A57"/>
<path d="M56.5129 34.5542C56.8764 34.8711 57.7433 35.0109 58.2093 35.1507C59.0575 35.4024 59.915 35.5795 60.7912 35.682C61.8911 35.71 63.0841 35.5982 63.9323 34.8059C63.9044 34.8338 63.8764 34.8618 63.8391 34.8898C64.7433 33.939 65.2932 33.0163 65.3491 31.6647C65.3864 30.7793 65.2652 29.9124 65.0881 29.0456C65.0136 28.6634 64.8085 28.1414 64.9856 27.7686C65.722 26.1747 67.2133 29.0269 67.4556 29.5769C68.192 31.2453 68.3691 33.2586 67.6048 34.955C66.4397 37.5089 63.9976 38.6461 61.2759 38.5715C59.4956 38.3199 57.8551 37.6487 56.4197 36.5582C56.0655 36.2972 55.5249 35.9337 55.3012 35.5329C54.8911 34.7872 55.8605 34.0043 56.5036 34.5542H56.5129Z" fill="#222A57"/>
</svg>
