<svg width="25" height="22" viewBox="0 0 25 22" fill="none" xmlns="http://www.w3.org/2000/svg">
<g filter="url(#filter0_d_5_1207)">
<path d="M12.5 18.325C12.2667 18.325 12.0292 18.2834 11.7875 18.2C11.5458 18.1167 11.3333 17.9834 11.15 17.8L9.425 16.225C7.65833 14.6084 6.0625 13.0042 4.6375 11.4125C3.2125 9.82086 2.5 8.06669 2.5 6.15002C2.5 4.58336 3.025 3.27502 4.075 2.22502C5.125 1.17502 6.43333 0.650024 8 0.650024C8.88333 0.650024 9.71667 0.837524 10.5 1.21252C11.2833 1.58752 11.95 2.10002 12.5 2.75002C13.05 2.10002 13.7167 1.58752 14.5 1.21252C15.2833 0.837524 16.1167 0.650024 17 0.650024C18.5667 0.650024 19.875 1.17502 20.925 2.22502C21.975 3.27502 22.5 4.58336 22.5 6.15002C22.5 8.06669 21.7917 9.82502 20.375 11.425C18.9583 13.025 17.35 14.6334 15.55 16.25L13.85 17.8C13.6667 17.9834 13.4542 18.1167 13.2125 18.2C12.9708 18.2834 12.7333 18.325 12.5 18.325ZM11.55 4.75002C11.0667 4.06669 10.55 3.54586 10 3.18752C9.45 2.82919 8.78333 2.65002 8 2.65002C7 2.65002 6.16667 2.98336 5.5 3.65002C4.83333 4.31669 4.5 5.15002 4.5 6.15002C4.5 7.01669 4.80833 7.93753 5.425 8.91253C6.04167 9.88753 6.77917 10.8334 7.6375 11.75C8.49583 12.6667 9.37917 13.525 10.2875 14.325C11.1958 15.125 11.9333 15.7834 12.5 16.3C13.0667 15.7834 13.8042 15.125 14.7125 14.325C15.6208 13.525 16.5042 12.6667 17.3625 11.75C18.2208 10.8334 18.9583 9.88753 19.575 8.91253C20.1917 7.93753 20.5 7.01669 20.5 6.15002C20.5 5.15002 20.1667 4.31669 19.5 3.65002C18.8333 2.98336 18 2.65002 17 2.65002C16.2167 2.65002 15.55 2.82919 15 3.18752C14.45 3.54586 13.9333 4.06669 13.45 4.75002C13.3333 4.91669 13.1917 5.04169 13.025 5.12502C12.8583 5.20836 12.6833 5.25002 12.5 5.25002C12.3167 5.25002 12.1417 5.20836 11.975 5.12502C11.8083 5.04169 11.6667 4.91669 11.55 4.75002Z" fill="#1C1B1F"/>
</g>
<defs>
<filter id="filter0_d_5_1207" x="-1.5" y="0.650024" width="28" height="25.675" filterUnits="userSpaceOnUse" color-interpolation-filters="sRGB">
<feFlood flood-opacity="0" result="BackgroundImageFix"/>
<feColorMatrix in="SourceAlpha" type="matrix" values="0 0 0 0 0 0 0 0 0 0 0 0 0 0 0 0 0 0 127 0" result="hardAlpha"/>
<feOffset dy="4"/>
<feGaussianBlur stdDeviation="2"/>
<feComposite in2="hardAlpha" operator="out"/>
<feColorMatrix type="matrix" values="0 0 0 0 0 0 0 0 0 0 0 0 0 0 0 0 0 0 0.25 0"/>
<feBlend mode="normal" in2="BackgroundImageFix" result="effect1_dropShadow_5_1207"/>
<feBlend mode="normal" in="SourceGraphic" in2="effect1_dropShadow_5_1207" result="shape"/>
</filter>
</defs>
</svg>
