<svg width="25" height="24" viewBox="0 0 25 24" fill="none" xmlns="http://www.w3.org/2000/svg">
<mask id="mask0_8_669" style="mask-type:alpha" maskUnits="userSpaceOnUse" x="0" y="0" width="25" height="24">
<rect x="0.5" width="24" height="24" fill="#D9D9D9"/>
</mask>
<g mask="url(#mask0_8_669)">
<path d="M12.5 20.325C12.2667 20.325 12.0292 20.2834 11.7875 20.2C11.5458 20.1167 11.3333 19.9834 11.15 19.8L9.425 18.225C7.65833 16.6084 6.0625 15.0042 4.6375 13.4125C3.2125 11.8209 2.5 10.0667 2.5 8.15002C2.5 6.58336 3.025 5.27502 4.075 4.22502C5.125 3.17502 6.43333 2.65002 8 2.65002C8.88333 2.65002 9.71667 2.83752 10.5 3.21252C11.2833 3.58752 11.95 4.10002 12.5 4.75002C13.05 4.10002 13.7167 3.58752 14.5 3.21252C15.2833 2.83752 16.1167 2.65002 17 2.65002C18.5667 2.65002 19.875 3.17502 20.925 4.22502C21.975 5.27502 22.5 6.58336 22.5 8.15002C22.5 10.0667 21.7917 11.825 20.375 13.425C18.9583 15.025 17.35 16.6334 15.55 18.25L13.85 19.8C13.6667 19.9834 13.4542 20.1167 13.2125 20.2C12.9708 20.2834 12.7333 20.325 12.5 20.325Z" fill="#16A99F"/>
</g>
</svg>
