<svg width="30" height="30" viewBox="0 0 30 30" fill="none" xmlns="http://www.w3.org/2000/svg">
<mask id="mask0_8_1122" style="mask-type:alpha" maskUnits="userSpaceOnUse" x="0" y="0" width="30" height="30">
<rect width="30" height="30" fill="#D9D9D9"/>
</mask>
<g mask="url(#mask0_8_1122)">
<path d="M5 26.25C4.3125 26.25 3.72396 26.0052 3.23438 25.5156C2.74479 25.026 2.5 24.4375 2.5 23.75V3.75L4.59375 5.84375L6.65625 3.75L8.75 5.84375L10.8438 3.75L12.9062 5.84375L15 3.75L17.0938 5.84375L19.1562 3.75L21.25 5.84375L23.3438 3.75L25.4062 5.84375L27.5 3.75V23.75C27.5 24.4375 27.2552 25.026 26.7656 25.5156C26.276 26.0052 25.6875 26.25 25 26.25H5ZM5 23.75H13.75V16.25H5V23.75ZM16.25 23.75H25V21.25H16.25V23.75ZM16.25 18.75H25V16.25H16.25V18.75ZM5 13.75H25V10H5V13.75Z" fill="white"/>
</g>
</svg>
