<svg width="54" height="57" viewBox="0 0 54 57" fill="none" xmlns="http://www.w3.org/2000/svg">
<path d="M40.586 48.0413H9.45894C8.66797 48.0413 8.00495 47.7738 7.46988 47.2387C6.93481 46.7037 6.66727 46.0407 6.66727 45.2497C6.66727 44.4587 6.93481 43.7957 7.46988 43.2606C8.00495 42.7255 8.66797 42.458 9.45894 42.458H12.2506V22.9163C12.2506 21.3809 12.4484 19.8688 12.8438 18.3799C13.2393 16.891 13.8326 15.4719 14.6235 14.1226L18.811 18.3101C18.4853 19.0545 18.2411 19.8106 18.0782 20.5783C17.9154 21.346 17.8339 22.1254 17.8339 22.9163V42.458H35.1423L1.36311 8.67884C0.851301 8.16704 0.595398 7.51565 0.595398 6.72468C0.595398 5.9337 0.851301 5.28231 1.36311 4.77051C1.87491 4.2587 2.5263 4.0028 3.31727 4.0028C4.10825 4.0028 4.75963 4.2587 5.27144 4.77051L52.7298 52.2288C53.2416 52.7407 53.5091 53.3804 53.5324 54.1481C53.5556 54.9158 53.2881 55.5788 52.7298 56.1372C52.218 56.649 51.5666 56.9049 50.7756 56.9049C49.9846 56.9049 49.3332 56.649 48.8214 56.1372L40.586 48.0413ZM33.1881 6.72468C36.9103 7.65523 39.9346 9.62103 42.261 12.6221C44.5874 15.6231 45.7506 19.0545 45.7506 22.9163V30.5934C45.7506 31.524 45.4598 32.2219 44.8782 32.6872C44.2966 33.1525 43.6569 33.3851 42.9589 33.3851C42.261 33.3851 41.6213 33.1408 41.0397 32.6523C40.4581 32.1637 40.1673 31.4542 40.1673 30.5236V22.9163C40.1673 19.8455 39.0739 17.2167 36.8871 15.0299C34.7003 12.8431 32.0714 11.7497 29.0006 11.7497C28.2562 11.7497 27.4652 11.8427 26.6277 12.0288C25.7902 12.215 25.0457 12.4476 24.3944 12.7268C23.6034 13.0525 22.824 13.1222 22.0563 12.9361C21.2886 12.75 20.6954 12.308 20.2766 11.6101C19.9044 11.0052 19.7765 10.3655 19.8928 9.69082C20.0091 9.01617 20.3697 8.51599 20.9746 8.1903C21.5794 7.86461 22.2076 7.58544 22.8589 7.3528C23.5103 7.12016 24.1617 6.91079 24.8131 6.72468V4.77051C24.8131 3.60731 25.2202 2.6186 26.0345 1.80436C26.8487 0.990126 27.8374 0.583008 29.0006 0.583008C30.1638 0.583008 31.1525 0.990126 31.9668 1.80436C32.781 2.6186 33.1881 3.60731 33.1881 4.77051V6.72468ZM29.0006 56.4163C27.6048 56.4163 26.3602 56.0325 25.2668 55.2648C24.1734 54.4971 23.6266 53.4618 23.6266 52.1591C23.6266 51.7868 23.7779 51.4728 24.0803 51.2169C24.3827 50.961 24.7201 50.833 25.0923 50.833H32.9089C33.2812 50.833 33.6185 50.961 33.9209 51.2169C34.2234 51.4728 34.3746 51.7868 34.3746 52.1591C34.3746 53.4618 33.8279 54.4971 32.7345 55.2648C31.6411 56.0325 30.3964 56.4163 29.0006 56.4163Z" fill="#16A99F"/>
</svg>
